<svg width="109" height="108" viewBox="0 0 109 108" fill="none" xmlns="http://www.w3.org/2000/svg">
<g clip-path="url(#clip0)">
<path d="M4.00103 60.1365C29.5662 60.4063 55.1314 59.0998 80.6966 59.0998C88.0181 59.0998 95.3396 59.2463 102.657 59.5777C103.583 59.6201 104.268 58.7877 104.31 57.9321C104.647 51.4421 104.643 44.9406 104.256 38.4506C104.167 36.9553 104.059 35.46 103.931 33.9647C103.83 32.7815 103.869 31.3671 103.242 30.3073C102.32 28.7465 100.582 28.6656 98.9675 28.7426C93.3573 29.0124 87.7432 29.2282 82.1292 29.3554C64.4585 29.7601 46.7955 30.3266 29.121 30.5617C20.0533 30.685 10.9779 30.7582 1.91028 30.5887C0.950082 30.5732 -0.0836764 31.4751 0.00537404 32.4848C0.322858 36.0458 0.628727 39.6106 0.92298 43.1755C1.16303 46.1083 1.39921 49.0411 1.61602 51.974C1.72056 53.4076 1.75928 54.8567 1.91802 56.2865C2.0574 57.5428 2.70012 58.514 3.30024 59.6008C3.67193 60.2714 4.53533 60.0055 4.78312 59.4081C5.24386 58.2982 5.73945 57.2962 5.72396 56.0745C5.7046 54.7102 5.53424 53.3344 5.43358 51.974C5.20901 48.9602 4.96897 45.9503 4.7173 42.9404C4.42692 39.4526 4.12879 35.9687 3.81518 32.4848C3.18021 33.1168 2.54525 33.7489 1.91028 34.3809C33.0121 34.9436 64.1642 33.6756 95.2273 32.2882C96.4044 32.2343 97.5775 32.1803 98.7545 32.1225C99.0139 32.111 100.148 31.8913 100.326 32.0107C100.594 32.1919 100.532 33.6756 100.559 33.9608C100.648 34.9551 100.725 35.9533 100.799 36.9515C101.294 43.9347 101.349 50.9373 101 57.9282C101.55 57.381 102.104 56.8299 102.653 56.2826C76.9333 55.2575 51.0777 56.2672 25.3731 57.3463C18.2452 57.643 11.1173 57.8203 3.99715 58.252C2.79304 58.3252 2.76981 60.125 4.00103 60.1365Z" fill="#2B74B9"/>
<path d="M20.1466 57.8165C20.1079 57.805 20.0653 57.7934 20.0266 57.7857C20.2744 58.0323 20.5222 58.279 20.7661 58.5218C20.7584 58.4717 20.7468 58.4216 20.739 58.3715C20.0537 58.5603 19.3646 58.7492 18.6793 58.938C19.0316 59.8552 18.8612 61.4739 18.9348 62.4489C19.0277 63.7014 19.0974 64.9578 19.1748 66.2103C19.3181 68.592 19.442 70.9776 19.562 73.3593C19.8059 78.2461 19.9569 83.1791 20.5996 88.035C20.8165 89.6767 23.4105 89.7577 23.2557 88.035C22.7756 82.7667 22.3458 77.51 22.0206 72.2301C21.8657 69.7212 21.7186 67.2085 21.4901 64.7034C21.3663 63.3238 21.223 61.9441 21.0643 60.5644C20.9752 59.7859 20.9829 58.8262 20.6345 58.1171C20.0963 57.0226 18.354 57.7934 18.6831 58.938C18.6986 58.9881 18.7102 59.0382 18.7257 59.0845C18.8186 59.412 19.109 59.7627 19.4652 59.8206C19.5078 59.8283 19.5465 59.836 19.5891 59.8398C20.8978 60.0672 21.4863 58.1711 20.1466 57.8165Z" fill="#2B74B9"/>
<path d="M88.8742 57.7858C87.6352 59.7204 88.1502 62.8999 88.1463 65.1274C88.1425 67.7519 88.2005 70.3765 88.3322 72.9971C88.5993 78.2037 88.8858 83.6108 89.9428 88.7249C90.3145 90.5324 93.3693 90.1547 93.2106 88.2855C92.7653 83.0519 91.9561 77.8761 91.6812 72.6233C91.5496 70.126 91.4605 67.6286 91.4334 65.1274C91.4102 62.8768 92.0258 59.8052 90.9146 57.7858C90.4771 56.9803 89.3388 57.0651 88.8742 57.7858Z" fill="#2B74B9"/>
<path d="M16.2287 38.5509C16.2867 42.2276 16.6313 45.8271 16.399 49.5114C16.3138 50.8487 17.9671 51.2418 18.8344 50.5173C19.5816 49.8968 20.2166 49.1068 21.018 48.5595C22.1602 47.781 23.3411 48.4362 23.283 49.8621C23.1901 52.2169 20.7083 52.6023 19.0396 51.5193C17.6148 50.5905 15.8144 52.8258 17.1889 53.9087C20.8361 56.7838 26.3456 54.4406 26.2294 49.6194C26.1791 47.6269 24.9324 45.4918 22.8184 45.1758C20.1817 44.7827 18.5711 46.9948 16.821 48.5133C17.6341 48.8486 18.4433 49.1839 19.2564 49.5191C19.4151 45.8078 19.3996 41.873 18.4123 38.2658C18.0832 37.0633 16.2093 37.2907 16.2287 38.5509Z" fill="#2B74B9"/>
<path d="M18.0985 39.9153C19.5581 40.135 21.0371 39.9461 22.5123 39.9847C23.9603 40.0271 25.6058 40.5897 26.9803 40.0964C27.7662 39.8151 28.227 38.7514 27.5068 38.1155C26.264 37.0133 24.4133 37.0673 22.8104 37.0788C21.161 37.0904 19.2987 37.26 17.8584 38.1078C17.1963 38.5048 17.2157 39.7843 18.0985 39.9153Z" fill="#2B74B9"/>
<path d="M30.6898 41.9C30.3994 44.3703 30.4381 47.1991 30.6859 49.6771C30.8253 51.08 31.6074 52.1244 33.1561 51.9394C34.9294 51.7274 36.0019 50.0201 36.9737 48.7175C38.5804 46.5593 40.1717 44.3934 41.794 42.2468C40.9538 42.0194 40.1175 41.7959 39.2774 41.5685C39.3703 44.6979 39.3161 47.8388 39.1806 50.9643C39.0954 52.9491 42.2702 52.9645 42.2896 50.9643C42.3206 47.8196 42.1928 44.7018 41.976 41.5685C41.8792 40.1888 40.2453 39.8034 39.4593 40.8902C38.4565 42.2738 37.4383 43.6496 36.4239 45.0255C35.5256 46.2433 34.368 47.4496 33.6168 48.7445C33.342 48.9719 33.2258 49.284 33.2723 49.6771C33.2413 49.207 33.2103 48.7329 33.1832 48.2628C33.1367 47.5575 33.0942 46.8484 33.0477 46.1431C32.9509 44.6401 32.889 43.1255 32.587 41.6456C32.3508 40.4933 30.806 40.9095 30.6898 41.9Z" fill="#2B74B9"/>
<path d="M45.9017 41.133C45.9985 41.1523 46.0605 47.1644 46.1495 47.7849C46.3818 49.3765 46.5561 51.5039 48.4687 51.8469C50.4898 52.2091 52.263 49.6964 53.4826 48.4477C55.2675 46.6133 56.9285 44.6786 58.574 42.7247C57.7106 42.3701 56.8472 42.0117 55.9838 41.6572C55.9218 44.3819 56.0612 47.1374 56.1619 49.8621C56.2471 52.1359 59.8633 52.1205 59.7084 49.8621C59.5226 47.1336 59.3677 44.3703 59.0192 41.6572C58.8218 40.1272 57.1414 39.6608 56.1929 40.8941C55.0004 42.4472 53.6917 43.9271 52.3637 45.3685C51.7326 46.0506 51.0899 46.725 50.4356 47.3841C50.0213 47.8041 49.1347 49.0798 48.4648 49.0412C48.7978 49.18 49.1308 49.3149 49.4599 49.4536C48.5887 48.783 48.519 46.4283 48.399 45.4186C48.2558 44.22 48.31 43.0214 48.2054 41.8267C48.1048 40.6513 47.5008 39.3294 46.1224 39.4604C45.2435 39.5452 44.8796 40.9403 45.9017 41.133Z" fill="#2B74B9"/>
<path d="M72.516 42.1659C72.3534 39.6531 69.6858 38.3274 67.3704 38.9324C64.6912 39.6338 62.794 42.3855 62.9373 45.1025C63.0999 48.1664 66.0773 51.0067 69.0856 51.3613C72.6554 51.7813 75.5863 49.0065 77.0227 46.0159C77.6267 44.7595 76.1516 43.5379 75.0636 44.5129C72.729 46.6094 69.98 50.1203 66.9368 46.7019C65.9302 45.5727 65.8334 44.1969 66.6348 42.9135C67.0452 42.2545 70.0032 40.2582 70.1504 42.1659C70.2665 43.665 72.6167 43.6843 72.516 42.1659Z" fill="#2B74B9"/>
<path d="M79.888 38.0037C79.5861 39.9576 79.5861 41.9423 79.5589 43.9155C79.5357 45.7577 79.2221 47.6808 79.9848 49.3842C80.3449 50.1897 81.7581 50.1897 82.122 49.3842C82.8848 47.6808 82.5712 45.7577 82.5479 43.9155C82.5247 41.9423 82.5247 39.9576 82.2188 38.0037C82.0446 36.8552 80.0661 36.8513 79.888 38.0037Z" fill="#2B74B9"/>
<path d="M87.775 37.6838C85.6184 38.5239 83.7329 40.0038 81.8512 41.3257C80.7013 42.135 79.5436 43.1332 80.4148 44.6632C81.224 46.0776 83.5548 47.3031 84.8595 48.2319C86.7915 49.6077 88.8784 50.972 91.066 51.9085C93.1761 52.8103 95.0268 49.9546 92.9205 48.7522C91.2286 47.7848 89.4592 46.964 87.775 45.9812C86.9851 45.5226 86.1953 45.0524 85.4209 44.563C85.0299 44.3163 83.307 43.4877 83.1947 43.0754C83.1405 43.4762 83.0902 43.877 83.0359 44.2816C83.5083 43.4299 85.328 42.5898 86.1101 42.004C87.1013 41.264 88.0847 40.5356 88.89 39.5914C89.5482 38.8168 88.9481 37.229 87.775 37.6838Z" fill="#2B74B9"/>
<path d="M51.2214 39.2523C51.6628 39.0828 52.1158 38.9402 52.5842 38.8631C53.0527 38.786 53.5251 38.8168 53.9936 38.7205C54.9499 38.5201 54.9305 37.0286 53.9936 36.8167C52.9288 36.5777 51.6744 36.9207 50.6871 37.3292C50.1876 37.5373 49.8314 37.9882 49.9863 38.5548C50.1257 39.0327 50.7181 39.445 51.2214 39.2523Z" fill="#2B74B9"/>
</g>
<defs>
<clipPath id="clip0">
<rect width="108" height="108" fill="white" transform="translate(0.00195312 0.00012207)"/>
</clipPath>
</defs>
</svg>
